<!-- <svg class="icon icon-youtube" viewBox="0 0 20 20">
    <path fill="currentColor"
        d="M18.16 5.87c.34 1.309.34 4.08.34 4.08s0 2.771-.34 4.08a2.13 2.13 0 0 1-1.53
1.53c-1.309.34-6.63.34-6.63.34s-5.321 0-6.63-.34a2.13 2.13 0 0
1-1.53-1.53c-.34-1.309-.34-4.08-.34-4.08s0-2.771.34-4.08a2.17 2.17 0 0 1 1.53-1.53C4.679 4 10 4 10
4s5.321 0 6.63.34a2.17 2.17 0 0 1 1.53 1.53M8.3 12.5l4.42-2.55L8.3 7.4z" />
</svg> -->

<svg xmlns="http://www.w3.org/2000/svg" viewBox="0 0 24 24" class="icon icon-youtube">
    <g fill="none" stroke="currentColor" stroke-linecap="round" stroke-linejoin="round"
        stroke-width="1">
        <path
            d="M2 12c0-3.3 0-4.95 1.464-5.975C4.93 5 7.286 5 12 5s7.071 0 8.535 1.025S22 8.7 22 12s0 4.95-1.465 5.975C19.072 19 16.714 19 12 19s-7.071 0-8.536-1.025S2 15.3 2 12" />
        <path
            d="M10.5 9.908v4.184a.41.41 0 0 0 .412.408a.4.4 0 0 0 .228-.068l3.175-2.074a.405.405 0 0 0 .003-.678l-3.175-2.11a.415.415 0 0 0-.573.11a.4.4 0 0 0-.07.228" />
    </g>
</svg>